<?xml version="1.0" encoding="UTF-8"?>
<!-- Generator: visioncortex VTracer 0.6.12 -->
<svg version="1.1" xmlns="http://www.w3.org/2000/svg" width="1024" height="682">
<path d="M0 0 C0.331 0.091 0.331 0.091 2.009 0.554 C2.587 0.725 3.166 0.896 3.762 1.072 C7.135 1.641 10.596 1.452 14.017 1.452 C14.017 8.712 14.017 15.972 14.017 23.452 C13.027 23.452 12.037 23.452 11.017 23.452 C9.63 21.772 9.63 21.772 8.329 19.577 C7.892 18.858 7.455 18.139 7.005 17.397 C6.017 15.452 6.017 15.452 6.017 13.452 C5.357 13.452 4.697 13.452 4.017 13.452 C4.017 12.792 4.017 12.132 4.017 11.452 C3.65 11.312 3.65 11.312 1.794 10.604 C-0.739 9.553 -3.028 8.346 -5.421 7.015 C-19.048 0.221 -36.587 -0.883 -51.202 3.413 C-61.282 7.179 -68.38 11.981 -73.296 21.64 C-77.15 31.195 -76.596 40.919 -72.983 50.452 C-68.181 60.161 -60.119 66.024 -49.983 69.452 C-37.382 72.838 -24.428 72.27 -11.983 68.452 C-10.3 67.48 -8.629 66.486 -6.983 65.452 C-6.323 65.452 -5.663 65.452 -4.983 65.452 C-5.035 62.347 -5.13 59.244 -5.233 56.14 C-5.248 55.259 -5.262 54.377 -5.276 53.47 C-5.522 46.997 -5.522 46.997 -7.702 44.421 C-10.223 43.35 -12.533 42.727 -15.233 42.265 C-15.679 42.185 -15.679 42.185 -17.937 41.784 C-18.612 41.675 -19.287 41.565 -19.983 41.452 C-19.983 40.792 -19.983 40.132 -19.983 39.452 C-4.143 39.452 11.697 39.452 28.017 39.452 C28.017 40.112 28.017 40.772 28.017 41.452 C27.589 41.549 27.589 41.549 25.427 42.038 C24.322 42.298 23.217 42.559 22.079 42.827 C20.977 43.082 19.875 43.338 18.739 43.601 C17.841 43.882 16.942 44.163 16.017 44.452 C14.786 46.913 14.811 48.71 14.7 51.46 C14.658 52.446 14.616 53.432 14.573 54.448 C14.534 55.481 14.495 56.513 14.454 57.577 C14.433 58.097 14.433 58.097 14.323 60.729 C14.217 63.304 14.115 65.878 14.017 68.452 C-9.357 75.938 -34.657 80.324 -58.983 74.452 C-60.052 74.196 -61.121 73.939 -62.222 73.675 C-74.911 70.201 -85.869 64.416 -92.515 52.769 C-96.887 43.622 -97.829 33.899 -94.546 24.202 C-88.721 11.907 -77.7 4.631 -65.288 0.104 C-44.836 -6.058 -20.559 -5.679 0 0 Z " fill="#000000" transform="translate(476.9833984375,303.5478515625)"/>
<path d="M0 0 C6.509 6.03 10.588 14.134 11.121 23.02 C11.428 33.601 8.369 42.594 1.25 50.5 C-14.343 65.227 -34.825 66.746 -55.234 66.285 C-71.123 65.662 -86.898 61.561 -98.75 50.344 C-106.337 41.999 -108.403 33.685 -108.266 22.602 C-107.518 12.462 -102.278 5.785 -95 -1 C-70.254 -21.161 -24.542 -19.509 0 0 Z M-81.312 2.312 C-87.96 10.788 -89.722 20.113 -88.746 30.773 C-87.183 39.924 -83.066 47.882 -76 54 C-62.826 62.191 -48.639 64.137 -33.562 60.875 C-25.097 58.417 -17.783 53.488 -13 46 C-7.893 36.662 -7.338 25.248 -9.695 14.969 C-12.88 6.298 -18.561 -1.317 -26.938 -5.449 C-27.443 -5.654 -27.443 -5.654 -30 -6.688 C-31.011 -7.104 -32.021 -7.52 -33.062 -7.949 C-49.323 -13.766 -69.427 -10.463 -81.312 2.312 Z " fill="#000000" transform="translate(643,314)"/>
<path d="M0 0 C3.874 -0.262 7.745 -0.422 11.625 -0.562 C12.172 -0.6 12.172 -0.6 14.941 -0.791 C22.831 -1.006 22.831 -1.006 25.824 1.571 C27.443 3.964 28.708 6.416 30 9 C31.292 11.132 32.599 13.255 33.918 15.371 C34.619 16.524 35.317 17.678 36.014 18.833 C37.493 21.287 38.975 23.739 40.459 26.19 C41.956 28.661 43.452 31.133 44.947 33.606 C48.873 40.096 52.806 46.58 56.79 53.035 C57.614 54.372 58.433 55.713 59.249 57.055 C60.447 59.023 61.659 60.981 62.875 62.938 C63.553 64.04 64.231 65.142 64.93 66.277 C68.03 70.354 71.374 72.099 76.312 73.188 C77.529 73.456 78.746 73.724 80 74 C79.67 74.66 79.34 75.32 79 76 C63.82 76 48.64 76 33 76 C33 75.34 33 74.68 33 74 C33.313 73.939 33.313 73.939 34.898 73.633 C35.716 73.465 36.533 73.298 37.375 73.125 C38.187 72.963 38.999 72.8 39.836 72.633 C42 72 42 72 44 70 C43.37 63.685 41.015 57.179 36.826 52.36 C30.081 47.336 18.416 49.372 10.5 49.625 C8.224 49.647 5.948 49.663 3.672 49.672 C-1.888 49.708 -7.443 49.823 -13 50 C-13.303 50.773 -13.607 51.547 -13.919 52.344 C-15.354 55.869 -17.168 59.154 -18.977 62.5 C-20.101 65.247 -20.347 67.062 -20 70 C-17.687 72.313 -16.521 72.496 -13.375 73.125 C-12.558 73.293 -11.74 73.46 -10.898 73.633 C-10.272 73.754 -9.645 73.875 -9 74 C-9 74.66 -9 75.32 -9 76 C-20.88 76 -32.76 76 -45 76 C-45 75.34 -45 74.68 -45 74 C-44.336 73.83 -43.672 73.66 -42.988 73.484 C-42.105 73.242 -41.222 73 -40.312 72.75 C-39.442 72.518 -38.572 72.286 -37.676 72.047 C-32.268 69.931 -29.37 66.49 -26.582 61.52 C-25.972 60.446 -25.363 59.373 -24.735 58.267 C-24.1 57.127 -23.466 55.987 -22.812 54.812 C-22.144 53.63 -21.475 52.448 -20.804 51.266 C-19.474 48.922 -18.148 46.575 -16.826 44.227 C-14.469 40.062 -12.059 35.932 -9.625 31.812 C-9.237 31.151 -8.849 30.489 -8.449 29.807 C-6.473 26.446 -4.457 23.115 -2.391 19.809 C-1.968 19.126 -1.546 18.444 -1.111 17.741 C-0.314 16.456 0.493 15.177 1.31 13.906 C3.441 10.462 4.474 8.068 4 4 C2.68 3.34 1.36 2.68 0 2 C0 1.34 0 0.68 0 0 Z M10 11 C7.934 14.555 5.871 18.111 3.811 21.669 C3.112 22.876 2.412 24.082 1.71 25.288 C0.695 27.035 -0.317 28.783 -1.328 30.531 C-1.936 31.579 -2.543 32.626 -3.169 33.705 C-5.227 37.409 -7.105 41.21 -9 45 C4.2 45 17.4 45 31 45 C29.528 41.321 28.122 38.309 26.137 34.945 C25.858 34.473 25.858 34.473 24.447 32.082 C23.867 31.106 23.286 30.13 22.688 29.125 C22.118 28.157 21.549 27.189 20.963 26.191 C17.857 20.949 14.703 15.843 11 11 C10.67 11 10.34 11 10 11 Z " fill="#000000" transform="translate(149,302)"/>
<path d="M0 0 C14.85 0 29.7 0 45 0 C45 0.66 45 1.32 45 2 C44.229 2.182 43.458 2.364 42.664 2.551 C41.661 2.802 40.658 3.054 39.625 3.312 C39.126 3.434 39.126 3.434 36.602 4.051 C34 5 34 5 32 8 C31.759 10.715 31.759 10.715 31.773 14.032 C31.773 15.273 31.773 16.514 31.773 17.793 C31.784 19.147 31.794 20.501 31.805 21.855 C31.808 23.241 31.811 24.627 31.813 26.013 C31.821 29.658 31.841 33.302 31.863 36.947 C31.883 40.667 31.892 44.387 31.902 48.107 C31.924 55.405 31.958 62.702 32 70 C36.996 71.665 42.208 71.186 47.439 71.185 C49.465 71.187 51.49 71.206 53.516 71.225 C76.239 71.258 76.239 71.258 85 64 C87.311 61.171 89.373 58.287 91.371 55.23 C91.64 54.862 91.64 54.862 93 53 C93.66 53 94.32 53 95 53 C94.524 56.084 94.044 59.167 93.562 62.25 C93.495 62.686 93.495 62.686 93.154 64.895 C93.088 65.317 93.088 65.317 92.754 67.453 C92.633 68.228 92.513 69.003 92.389 69.802 C92.02 71.887 91.514 73.946 91 76 C60.97 76 30.94 76 0 76 C0 75.34 0 74.68 0 74 C0.699 73.807 1.397 73.613 2.117 73.414 C2.572 73.284 2.572 73.284 4.875 72.625 C5.78 72.37 6.685 72.115 7.617 71.852 C10 71 10 71 12 69 C12.267 66.426 12.267 66.426 12.291 63.129 C12.303 61.898 12.316 60.666 12.329 59.397 C12.332 58.048 12.334 56.698 12.336 55.348 C12.342 53.968 12.349 52.588 12.356 51.208 C12.368 48.313 12.372 45.419 12.371 42.525 C12.37 38.814 12.398 35.104 12.432 31.394 C12.454 28.543 12.458 25.693 12.457 22.842 C12.46 21.474 12.469 20.106 12.484 18.738 C12.504 16.826 12.495 14.913 12.486 13 C12.487 12.456 12.487 12.456 12.494 9.701 C12 7 12 7 10.103 5.171 C7.962 3.979 6.139 3.33 3.75 2.812 C2.512 2.544 1.275 2.276 0 2 C0 1.34 0 0.68 0 0 Z " fill="#000000" transform="translate(258,302)"/>
<path d="M0 0 C8.806 -0.047 17.613 -0.082 26.42 -0.104 C30.51 -0.114 34.6 -0.128 38.69 -0.151 C42.645 -0.173 46.601 -0.185 50.556 -0.19 C52.057 -0.193 53.558 -0.201 55.058 -0.211 C67.529 -0.298 79.255 0.01 90 7 C94.993 12.237 95.371 15.956 95.262 23.023 C94.894 27.203 93.976 29.024 91 32 C85.753 36.079 80.642 38.279 74.152 39.676 C72.996 39.929 71.84 40.182 70.648 40.443 C69.774 40.627 68.9 40.81 68 41 C68.318 41.313 68.318 41.313 69.928 42.896 C72.28 45.214 74.628 47.537 76.972 49.862 C77.989 50.869 79.007 51.874 80.028 52.877 C81.492 54.317 82.95 55.763 84.406 57.211 C85.286 58.08 86.166 58.95 87.072 59.845 C89 62 89 62 89 64 C89.557 64.248 90.114 64.495 90.688 64.75 C93 66 93 66 95.188 67.938 C98.876 70.642 102.652 71.722 107 73 C107.495 73.165 107.495 73.165 110 74 C110 74.66 110 75.32 110 76 C80.208 78.423 80.208 78.423 73.297 73.27 C70.445 70.452 68.223 67.282 66.151 63.86 C64.421 61.065 62.308 58.629 60.188 56.125 C58.145 53.646 56.137 51.192 54.27 48.578 C51.135 44.676 48.696 42.907 43.719 42.289 C39.472 41.954 35.257 41.923 31 42 C31.052 46.251 31.147 50.5 31.25 54.75 C31.264 55.957 31.278 57.163 31.293 58.406 C31.325 59.566 31.357 60.727 31.391 61.922 C31.412 62.99 31.433 64.058 31.454 65.159 C32.123 68.639 33.265 69.818 36 72 C38.141 72.828 38.141 72.828 40.25 73.25 C41.487 73.498 42.725 73.745 44 74 C44 74.66 44 75.32 44 76 C29.48 76 14.96 76 0 76 C0 75.34 0 74.68 0 74 C0.782 73.807 1.565 73.613 2.371 73.414 C3.383 73.154 4.395 72.893 5.438 72.625 C6.447 72.37 7.456 72.115 8.496 71.852 C11 71 11 71 12 69 C12.107 67.045 12.149 65.087 12.161 63.129 C12.171 61.898 12.18 60.666 12.19 59.397 C12.195 58.048 12.199 56.698 12.203 55.348 C12.209 53.968 12.215 52.588 12.22 51.208 C12.231 48.313 12.237 45.419 12.24 42.525 C12.246 38.814 12.27 35.104 12.298 31.394 C12.317 28.543 12.322 25.693 12.324 22.842 C12.327 21.474 12.335 20.106 12.348 18.738 C12.365 16.826 12.361 14.913 12.356 13 C12.36 11.912 12.364 10.823 12.367 9.701 C12 7 12 7 10.619 5.171 C8.559 3.681 6.802 3.282 4.312 2.812 C3.908 2.733 3.908 2.733 1.863 2.332 C1.248 2.222 0.634 2.113 0 2 C0 1.34 0 0.68 0 0 Z M31 5 C30.912 7.376 30.885 9.722 30.902 12.098 C30.904 12.807 30.905 13.515 30.907 14.246 C30.912 16.518 30.925 18.79 30.938 21.062 C30.943 22.6 30.947 24.137 30.951 25.674 C30.962 29.449 30.979 33.225 31 37 C35.089 37.1 39.178 37.172 43.268 37.22 C44.655 37.24 46.042 37.267 47.428 37.302 C55.864 37.509 63.532 37.415 71 33 C74.738 29.262 76.138 25.991 76.312 20.75 C76.227 15.982 75.276 12.542 72 9 C63.71 2.966 53.342 3.84 43.562 3.875 C42.462 3.871 41.362 3.867 40.229 3.863 C39.185 3.865 38.142 3.866 37.066 3.867 C36.592 3.868 36.592 3.868 34.19 3.871 C32 4 32 4 31 5 Z " fill="#000000" transform="translate(680,302)"/>
<path d="M0 0 C8.243 -1.526 16.924 -2.768 25 0 C31.483 5.457 34.986 13.54 38.579 21.057 C40.302 24.626 42.27 27.894 44.375 31.25 C46.573 34.926 48.765 38.604 50.948 42.289 C52.822 45.45 54.707 48.606 56.597 51.758 C57.359 53.034 58.118 54.311 58.873 55.591 C59.943 57.403 61.025 59.208 62.109 61.012 C62.424 61.54 62.424 61.54 64.015 64.214 C67.184 68.661 70.604 71.195 75.812 72.75 C76.208 72.871 76.208 72.871 78.207 73.484 C78.799 73.655 79.39 73.825 80 74 C80 74.66 80 75.32 80 76 C64.82 76 49.64 76 34 76 C34 75.34 34 74.68 34 74 C34.626 73.902 35.253 73.804 35.898 73.703 C36.716 73.554 37.533 73.404 38.375 73.25 C39.187 73.111 39.999 72.972 40.836 72.828 C43 72 43 72 44.422 70.223 C45.221 67.15 44.39 65.937 42.875 63.188 C42.439 62.377 42.004 61.566 41.555 60.73 C41.042 59.829 40.529 58.928 40 58 C39.533 56.807 39.065 55.615 38.583 54.386 C37.181 51.958 36.505 51.149 33.785 50.346 C30.874 50.09 28.032 50.057 25.109 50.098 C24.05 50.085 22.99 50.073 21.898 50.06 C18.515 50.029 15.133 50.045 11.75 50.062 C9.456 50.049 7.161 50.033 4.867 50.014 C-0.756 49.973 -6.377 49.971 -12 50 C-12.298 50.769 -12.596 51.538 -12.904 52.33 C-14.496 56.208 -16.703 59.692 -18.855 63.281 C-20 66 -20 66 -19 71 C-15.37 71.99 -11.74 72.98 -8 74 C-8.33 74.66 -8.66 75.32 -9 76 C-20.55 76 -32.1 76 -44 76 C-44 75.34 -44 74.68 -44 74 C-43.336 73.841 -42.672 73.683 -41.988 73.52 C-41.547 73.403 -41.547 73.403 -39.312 72.812 C-38.442 72.592 -37.572 72.372 -36.676 72.145 C-31.02 69.725 -28.131 64.961 -25.125 59.812 C-24.757 59.187 -24.389 58.561 -24.01 57.916 C-22.663 55.617 -21.331 53.309 -20 51 C-19.429 50.01 -18.857 49.021 -18.269 48.001 C-15.688 43.532 -13.109 39.061 -10.541 34.584 C-7.769 29.758 -4.993 24.941 -2.07 20.203 C-1.649 19.52 -1.229 18.837 -0.795 18.133 C0.281 16.401 1.371 14.676 2.461 12.953 C4.054 9.896 4.643 7.411 5 4 C4.175 3.67 4.175 3.67 0 2 C0 1.34 0 0.68 0 0 Z M11 11 C10.134 12.291 9.318 13.617 8.523 14.953 C8.02 15.795 7.517 16.637 6.999 17.504 C6.463 18.41 5.927 19.316 5.375 20.25 C4.834 21.16 4.293 22.07 3.735 23.007 C2.653 24.83 1.572 26.653 0.493 28.478 C-0.782 30.632 -2.065 32.782 -3.352 34.93 C-3.978 35.984 -4.605 37.039 -5.25 38.125 C-5.791 39.035 -6.333 39.945 -6.891 40.883 C-8 43 -8 43 -8 45 C5.2 45 18.4 45 32 45 C26.367 33.735 26.367 33.735 23.266 28.773 C22.609 27.723 21.953 26.672 21.277 25.59 C20.608 24.529 19.939 23.468 19.25 22.375 C18.566 21.275 17.881 20.176 17.176 19.043 C13.429 13.07 13.429 13.07 12 11 C11.67 11 11.34 11 11 11 Z " fill="#000000" transform="translate(852,302)"/>
</svg>
